<?xml version="1.0" encoding="UTF-8"?>
<svg id="SVGRoot" width="90px" height="90px" version="1.1" viewBox="0 0 90 90" xmlns="http://www.w3.org/2000/svg" xmlns:cc="http://creativecommons.org/ns#" xmlns:dc="http://purl.org/dc/elements/1.1/" xmlns:rdf="http://www.w3.org/1999/02/22-rdf-syntax-ns#" xmlns:xlink="http://www.w3.org/1999/xlink">
 <defs>
  <linearGradient id="linearGradient18747">
   <stop stop-color="#5e5b5b" offset="0"/>
   <stop stop-color="#282828" offset="1"/>
  </linearGradient>
  <linearGradient id="linearGradient18561">
   <stop stop-color="#fff" stop-opacity=".25403" offset="0"/>
   <stop stop-color="#fff" stop-opacity="0" offset="1"/>
  </linearGradient>
  <linearGradient id="linearGradient14089" x1="57" x2="60" y1="6" y2="9" gradientUnits="userSpaceOnUse">
   <stop stop-color="#898989" offset="0"/>
   <stop stop-color="#303030" offset="1"/>
  </linearGradient>
  <linearGradient id="linearGradient14109" x1="64.5" x2="69" y1="21" y2="25.5" gradientUnits="userSpaceOnUse">
   <stop stop-color="#303030" offset="0"/>
   <stop stop-color="#7e7e7e" offset="1"/>
  </linearGradient>
  <linearGradient id="linearGradient14111" x1="64.5" x2="69" y1="21" y2="25.5" gradientUnits="userSpaceOnUse">
   <stop stop-color="#303030" offset="0"/>
   <stop stop-color="#848484" offset="1"/>
  </linearGradient>
  <linearGradient id="linearGradient14125" x1="31.5" x2="34.5" y1="79.5" y2="82.5" gradientUnits="userSpaceOnUse">
   <stop stop-color="#848484" offset="0"/>
   <stop stop-color="#303030" offset="1"/>
  </linearGradient>
  <linearGradient id="linearGradient18446" x1="22.5" x2="67.5" y1="19.5" y2="72" gradientUnits="userSpaceOnUse">
   <stop stop-color="#747070" offset="0"/>
   <stop stop-color="#1c1c1c" offset="1"/>
  </linearGradient>
  <linearGradient id="linearGradient10850-0" x1="5.6888" x2=".47382" y1="7.8168" y2="7.4744" gradientUnits="userSpaceOnUse" xlink:href="#linearGradient18561"/>
  <filter id="filter10846-8" x="-.01581" y="-.014567" width="1.0316" height="1.0291" color-interpolation-filters="sRGB">
   <feGaussianBlur stdDeviation="0.034854588"/>
  </filter>
  <filter id="filter10846-8-7" x="-.01581" y="-.014567" width="1.0316" height="1.0291" color-interpolation-filters="sRGB">
   <feGaussianBlur stdDeviation="0.034854588"/>
  </filter>
  <linearGradient id="linearGradient18606" x1="25.759" x2="28.504" y1="75.647" y2="79.241" gradientUnits="userSpaceOnUse">
   <stop stop-color="#fff" stop-opacity=".375" offset="0"/>
   <stop stop-color="#fff" stop-opacity="0" offset="1"/>
  </linearGradient>
  <linearGradient id="linearGradient18616" x1="68.705" x2="77.938" y1="24.424" y2="28.04" gradientUnits="userSpaceOnUse">
   <stop stop-color="#fff" stop-opacity=".33468" offset="0"/>
   <stop stop-color="#fff" stop-opacity="0" offset="1"/>
  </linearGradient>
  <linearGradient id="linearGradient18733" x1="34.5" x2="52.5" y1="13.5" y2="24" gradientUnits="userSpaceOnUse">
   <stop offset="0"/>
   <stop stop-color="#7b7b7b" offset="1"/>
  </linearGradient>
  <linearGradient id="linearGradient18741" x1="31.5" x2="60" y1="25.5" y2="49.5" gradientUnits="userSpaceOnUse" xlink:href="#linearGradient18747"/>
  <linearGradient id="linearGradient18784" x1="24" x2="52.5" y1="34.5" y2="12" gradientTransform="rotate(90,45,45)" gradientUnits="userSpaceOnUse" xlink:href="#linearGradient18747"/>
  <linearGradient id="linearGradient18786" x1="43.5" x2="64.5" y1="25.5" y2="15" gradientTransform="rotate(90,45,45)" gradientUnits="userSpaceOnUse">
   <stop stop-color="#262626" offset="0"/>
   <stop stop-color="#7b7b7b" offset="1"/>
  </linearGradient>
 </defs>
 <metadata>
  <rdf:RDF>
   <cc:Work rdf:about="">
    <dc:format>image/svg+xml</dc:format>
    <dc:type rdf:resource="http://purl.org/dc/dcmitype/StillImage"/>
    <dc:title/>
   </cc:Work>
  </rdf:RDF>
 </metadata>
 <g>
  <path d="m31.5 1.5c-3 0-6 3-6 6v18h-18c-3 0-6 3-6 6v27c0 3 3 6 6 6h18v18c0 3 3 6 6 6h27c3 0 6-3 6-6v-18h18c3 0 6-3 6-6v-27c0-3-3-6-6-6h-18v-18c0-3-3-6-6-6zm0 6h27v24h24v27h-24v24h-27v-24h-24v-27h24z" fill="none" stroke="#000" stroke-width="1.7"/>
  <g>
   <path d="m25.5 25.5v-18c0-3 3-6 6-6h27c3 0 6 3 6 6v3l-6 6v-9h-27v24h-24v27h10.5l-7.5 6h-3c-3 0-6-3-6-6v-27c0-3 3-6 6-6z" fill="url(#linearGradient14089)"/>
   <path d="m64.5 64.5v18c0 3-3 6-6 6h-27c-3 0-6-3-6-6v-3l6-6v9h27v-24h24v-27h-10.5l7.5-6h3c3 0 6 3 6 6v27c0 3-3 6-6 6z" fill="url(#linearGradient14125)"/>
   <path d="m9 64.5h16.5v16.5l6-6v-16.5h-15z" fill="url(#linearGradient14111)"/>
   <path d="m73.5 31.5h-15v-16.5l6-6v16.5h16.5z" fill="url(#linearGradient14109)"/>
   <path transform="matrix(-1.1139 1.1841 -1.059 -1.21 40.924 9.0549)" d="m8.0813 4.6519c-0.89234 2.72-1.691 3.743-3.4759 3.8368-1.8244 0.095928-3.9015-0.49972-4.6387-3.491 1.4115 1.2341 3.4511 2.4155 4.7658 2.2808 0.94364-0.096667 1.9403-2.1591 3.3487-2.6267z" fill="url(#linearGradient10850-0)" filter="url(#filter10846-8)" style="mix-blend-mode:screen;paint-order:stroke fill markers"/>
   <path transform="matrix(-1.1139 1.1841 -1.059 -1.21 17.082 32.707)" d="m8.0813 4.6519c-0.89234 2.72-1.691 3.743-3.4759 3.8368-1.8244 0.095928-3.9015-0.49972-4.6387-3.491 1.4115 1.2341 3.4511 2.4155 4.7658 2.2808 0.94364-0.096667 1.9403-2.1591 3.3487-2.6267z" fill="url(#linearGradient10850-0)" filter="url(#filter10846-8-7)" style="mix-blend-mode:screen;paint-order:stroke fill markers"/>
   <path d="m26.987 79.732 0.02232-9.2857c-1.0507 0.89579-1.398 1.3255-1.5402 3.0357v8.192c0.53684-0.64732 1.1966-1.2946 1.5179-1.942z" fill="url(#linearGradient18606)"/>
   <path d="m69.152 27.009 8.0804-0.044643 2.2679-1.4643-9.0982 0.03571c-0.625 0.14881-1.0417 0.63988-1.25 1.4732z" fill="url(#linearGradient18616)"/>
   <path d="m33 3c-3.324 0-6 2.676-6 6v18h-18c-3.324 0-6 2.676-6 6v24c0 3.324 2.676 6 6 6h18v18c0 3.324 2.676 6 6 6h24c3.324 0 6-2.676 6-6v-18h18c3.324 0 6-2.676 6-6v-24c0-3.324-2.676-6-6-6h-18v-18c0-3.324-2.676-6-6-6z" fill="url(#linearGradient18446)" style="paint-order:markers fill stroke"/>
   <path d="m37.5 22.5 7.5-15 7.5 15z" fill="url(#linearGradient18741)" stroke="url(#linearGradient18733)" stroke-width="1px"/>
  </g>
  <g fill="none" stroke="#000">
   <path d="m52.5 67.5h-15l7.5 15z" stroke-width="1px"/>
   <path d="m22.5 52.5v-15l-15 7.5z" stroke-width="1px"/>
   <circle cx="45" cy="45" r="6" stroke-width="1.7" style="paint-order:markers fill stroke"/>
  </g>
  <path d="m67.5 37.5 15 7.5-15 7.5z" fill="url(#linearGradient18784)" stroke="url(#linearGradient18786)" stroke-width="1px"/>
 </g>
</svg>
