<?xml version="1.0" encoding="UTF-8" standalone="no"?>
<svg
   xmlns:dc="http://purl.org/dc/elements/1.1/"
   xmlns:cc="http://creativecommons.org/ns#"
   xmlns:rdf="http://www.w3.org/1999/02/22-rdf-syntax-ns#"
   xmlns:svg="http://www.w3.org/2000/svg"
   xmlns="http://www.w3.org/2000/svg"
   xmlns:xlink="http://www.w3.org/1999/xlink"
   xmlns:sodipodi="http://sodipodi.sourceforge.net/DTD/sodipodi-0.dtd"
   xmlns:inkscape="http://www.inkscape.org/namespaces/inkscape"
   width="90px"
   height="90px"
   viewBox="0 0 90 90"
   version="1.1"
   id="SVGRoot"
   sodipodi:docname="dpad.ink.svg"
   inkscape:version="1.0.2 (e86c870879, 2021-01-15, custom)">
  <defs
     id="defs13350">
    <linearGradient
       inkscape:collect="always"
       id="linearGradient18793">
      <stop
         style="stop-color:#262626;stop-opacity:1"
         offset="0"
         id="stop18789" />
      <stop
         style="stop-color:#7b7b7b;stop-opacity:1"
         offset="1"
         id="stop18791" />
    </linearGradient>
    <linearGradient
       inkscape:collect="always"
       id="linearGradient18747">
      <stop
         style="stop-color:#5e5b5b;stop-opacity:1"
         offset="0"
         id="stop18743" />
      <stop
         style="stop-color:#282828;stop-opacity:1"
         offset="1"
         id="stop18745" />
    </linearGradient>
    <linearGradient
       inkscape:collect="always"
       id="linearGradient18731">
      <stop
         style="stop-color:#000000;stop-opacity:1;"
         offset="0"
         id="stop18727" />
      <stop
         style="stop-color:#7b7b7b;stop-opacity:1"
         offset="1"
         id="stop18729" />
    </linearGradient>
    <linearGradient
       inkscape:collect="always"
       id="linearGradient18614">
      <stop
         style="stop-color:#ffffff;stop-opacity:0.33467743"
         offset="0"
         id="stop18610" />
      <stop
         style="stop-color:#ffffff;stop-opacity:0;"
         offset="1"
         id="stop18612" />
    </linearGradient>
    <linearGradient
       inkscape:collect="always"
       id="linearGradient18604">
      <stop
         style="stop-color:#ffffff;stop-opacity:0.375"
         offset="0"
         id="stop18600" />
      <stop
         style="stop-color:#ffffff;stop-opacity:0;"
         offset="1"
         id="stop18602" />
    </linearGradient>
    <linearGradient
       inkscape:collect="always"
       id="linearGradient18561">
      <stop
         style="stop-color:#ffffff;stop-opacity:0.25403225"
         offset="0"
         id="stop18557" />
      <stop
         style="stop-color:#ffffff;stop-opacity:0"
         offset="1"
         id="stop18559" />
    </linearGradient>
    <linearGradient
       inkscape:collect="always"
       id="linearGradient18444">
      <stop
         style="stop-color:#747070;stop-opacity:1"
         offset="0"
         id="stop18440" />
      <stop
         style="stop-color:#1c1c1c;stop-opacity:1"
         offset="1"
         id="stop18442" />
    </linearGradient>
    <linearGradient
       inkscape:collect="always"
       id="linearGradient14131">
      <stop
         style="stop-color:#848484;stop-opacity:1"
         offset="0"
         id="stop14127" />
      <stop
         style="stop-color:#303030;stop-opacity:1"
         offset="1"
         id="stop14129" />
    </linearGradient>
    <linearGradient
       inkscape:collect="always"
       id="linearGradient14117">
      <stop
         style="stop-color:#303030;stop-opacity:1;"
         offset="0"
         id="stop14113" />
      <stop
         style="stop-color:#848484;stop-opacity:1"
         offset="1"
         id="stop14115" />
    </linearGradient>
    <linearGradient
       inkscape:collect="always"
       id="linearGradient14107">
      <stop
         style="stop-color:#303030;stop-opacity:1;"
         offset="0"
         id="stop14103" />
      <stop
         style="stop-color:#7e7e7e;stop-opacity:1"
         offset="1"
         id="stop14105" />
    </linearGradient>
    <linearGradient
       inkscape:collect="always"
       id="linearGradient14101">
      <stop
         style="stop-color:#898989;stop-opacity:1"
         offset="0"
         id="stop14097" />
      <stop
         style="stop-color:#303030;stop-opacity:1"
         offset="1"
         id="stop14099" />
    </linearGradient>
    <linearGradient
       inkscape:collect="always"
       xlink:href="#linearGradient14101"
       id="linearGradient14089"
       x1="57"
       y1="6"
       x2="60"
       y2="9"
       gradientUnits="userSpaceOnUse" />
    <linearGradient
       inkscape:collect="always"
       xlink:href="#linearGradient14107"
       id="linearGradient14109"
       x1="64.5"
       y1="21"
       x2="69"
       y2="25.5"
       gradientUnits="userSpaceOnUse" />
    <linearGradient
       inkscape:collect="always"
       xlink:href="#linearGradient14117"
       id="linearGradient14111"
       x1="64.5"
       y1="21"
       x2="69"
       y2="25.5"
       gradientUnits="userSpaceOnUse" />
    <linearGradient
       inkscape:collect="always"
       xlink:href="#linearGradient14131"
       id="linearGradient14125"
       x1="31.5"
       y1="79.5"
       x2="34.5"
       y2="82.5"
       gradientUnits="userSpaceOnUse" />
    <linearGradient
       inkscape:collect="always"
       xlink:href="#linearGradient18444"
       id="linearGradient18446"
       x1="22.5"
       y1="19.5"
       x2="67.5"
       y2="72"
       gradientUnits="userSpaceOnUse" />
    <linearGradient
       inkscape:collect="always"
       xlink:href="#linearGradient18561"
       id="linearGradient10850-0"
       x1="5.6888161"
       y1="7.8167748"
       x2="0.4738169"
       y2="7.4743767"
       gradientUnits="userSpaceOnUse" />
    <filter
       inkscape:collect="always"
       style="color-interpolation-filters:sRGB"
       id="filter10846-8"
       x="-0.015809704"
       width="1.0316194"
       y="-0.01456743"
       height="1.0291349">
      <feGaussianBlur
         inkscape:collect="always"
         stdDeviation="0.034854588"
         id="feGaussianBlur10848-6" />
    </filter>
    <linearGradient
       inkscape:collect="always"
       xlink:href="#linearGradient18561"
       id="linearGradient10850-0-2"
       x1="5.6888161"
       y1="7.8167748"
       x2="0.4738169"
       y2="7.4743767"
       gradientUnits="userSpaceOnUse" />
    <filter
       inkscape:collect="always"
       style="color-interpolation-filters:sRGB"
       id="filter10846-8-7"
       x="-0.015809704"
       width="1.0316194"
       y="-0.01456743"
       height="1.0291349">
      <feGaussianBlur
         inkscape:collect="always"
         stdDeviation="0.034854588"
         id="feGaussianBlur10848-6-8" />
    </filter>
    <linearGradient
       inkscape:collect="always"
       xlink:href="#linearGradient18604"
       id="linearGradient18606"
       x1="25.75893"
       y1="75.647324"
       x2="28.504463"
       y2="79.241081"
       gradientUnits="userSpaceOnUse" />
    <linearGradient
       inkscape:collect="always"
       xlink:href="#linearGradient18614"
       id="linearGradient18616"
       x1="68.70536"
       y1="24.424107"
       x2="77.9375"
       y2="28.040178"
       gradientUnits="userSpaceOnUse" />
    <linearGradient
       inkscape:collect="always"
       xlink:href="#linearGradient18731"
       id="linearGradient18733"
       x1="34.5"
       y1="13.5"
       x2="52.5"
       y2="24"
       gradientUnits="userSpaceOnUse" />
    <linearGradient
       inkscape:collect="always"
       xlink:href="#linearGradient18747"
       id="linearGradient18741"
       x1="31.5"
       y1="25.5"
       x2="60"
       y2="49.5"
       gradientUnits="userSpaceOnUse" />
    <linearGradient
       inkscape:collect="always"
       xlink:href="#linearGradient18747"
       id="linearGradient18784"
       gradientUnits="userSpaceOnUse"
       x1="24"
       y1="34.5"
       x2="52.5"
       y2="12"
       gradientTransform="rotate(90,45,45)" />
    <linearGradient
       inkscape:collect="always"
       xlink:href="#linearGradient18793"
       id="linearGradient18786"
       gradientUnits="userSpaceOnUse"
       x1="43.5"
       y1="25.5"
       x2="64.5"
       y2="15"
       gradientTransform="rotate(90,45,45)" />
  </defs>
  <sodipodi:namedview
     id="base"
     pagecolor="#ffffff"
     bordercolor="#666666"
     borderopacity="1.0"
     inkscape:pageopacity="0.0"
     inkscape:pageshadow="2"
     inkscape:zoom="11.2"
     inkscape:cx="54.434795"
     inkscape:cy="42.688231"
     inkscape:document-units="px"
     inkscape:current-layer="layer15"
     inkscape:document-rotation="0"
     showgrid="true"
     inkscape:window-width="1278"
     inkscape:window-height="1360"
     inkscape:window-x="-7"
     inkscape:window-y="0"
     inkscape:window-maximized="0"
     inkscape:pagecheckerboard="true"
     inkscape:snap-grids="true"
     showguides="true"
     inkscape:guide-bbox="true"
     inkscape:snap-others="true"
     inkscape:snap-nodes="true"
     inkscape:snap-global="true"
     inkscape:snap-bbox="true"
     inkscape:bbox-nodes="false"
     inkscape:snap-bbox-edge-midpoints="false">
    <inkscape:grid
       type="xygrid"
       id="grid13363"
       spacingx="1.5"
       spacingy="1.5" />
  </sodipodi:namedview>
  <metadata
     id="metadata13353">
    <rdf:RDF>
      <cc:Work
         rdf:about="">
        <dc:format>image/svg+xml</dc:format>
        <dc:type
           rdf:resource="http://purl.org/dc/dcmitype/StillImage" />
        <dc:title></dc:title>
      </cc:Work>
    </rdf:RDF>
  </metadata>
  <g
     inkscape:groupmode="layer"
     id="layer16"
     inkscape:label="Border"
     style="display:inline">
    <path
       id="path14053-3"
       style="display:inline;fill:none;fill-opacity:1;stroke:#000000;stroke-width:1.7;stroke-linecap:butt;stroke-linejoin:miter;stroke-miterlimit:4;stroke-dasharray:none;stroke-opacity:1"
       d="m 31.5,1.5 c -3,0 -6,3 -6,6 v 18 h -18 c -3,0 -6,3 -6,6 v 27 c 0,3 3,6 6,6 h 3 15 V 81 82.5 c 0,3 3,6 6,6 h 27 c 3,0 6,-3 6,-6 v -18 h 18 c 3,0 6,-3 6,-6 v -27 c 0,-3 -3,-6 -6,-6 H 81 79.5 64.5 V 10.5 9 7.5 c 0,-3 -3,-6 -6,-6 z m 0,6 h 27 v 7.5 1.5 15 h 13.5 1.5 9 v 27 h -24 v 24 h -27 V 75 58.5 H 18 7.5 v -27 h 24 z" />
  </g>
  <g
     inkscape:groupmode="layer"
     id="layer13"
     inkscape:label="Bevel"
     style="display:inline">
    <path
       style="display:inline;fill:url(#linearGradient14089);fill-opacity:1;stroke:none;stroke-width:1px;stroke-linecap:butt;stroke-linejoin:miter;stroke-opacity:1"
       d="m 25.5,25.5 v -18 c 0,-3 3,-6 6,-6 h 27 c 3,0 6,3 6,6 v 3 l -6,6 v -9 h -27 v 24 h -24 v 27 H 18 l -7.5,6 h -3 c -3,0 -6,-3 -6,-6 v -27 c 0,-3 3,-6 6,-6 z"
       id="path14053"
       sodipodi:nodetypes="ccccccccccccccccccc" />
    <path
       style="display:inline;fill:url(#linearGradient14125);fill-opacity:1;stroke:none;stroke-width:1px;stroke-linecap:butt;stroke-linejoin:miter;stroke-opacity:1"
       d="m 64.5,64.5 v 18 c 0,3 -3,6 -6,6 h -27 c -3,0 -6,-3 -6,-6 v -3 l 6,-6 v 9 h 27 v -24 h 24 v -27 H 72 l 7.5,-6 h 3 c 3,0 6,3 6,6 v 27 c 0,3 -3,6 -6,6 z"
       id="path14053-5"
       sodipodi:nodetypes="ccccccccccccccccccc" />
    <path
       style="display:inline;fill:url(#linearGradient14111);fill-opacity:1;stroke:none;stroke-width:1px;stroke-linecap:butt;stroke-linejoin:miter;stroke-opacity:1"
       d="M 9,64.5 H 25.5 V 81 l 6,-6 V 58.5 h -15 z"
       id="path14075"
       sodipodi:nodetypes="ccccccc" />
    <path
       style="display:inline;fill:url(#linearGradient14109);fill-opacity:1;stroke:none;stroke-width:1px;stroke-linecap:butt;stroke-linejoin:miter;stroke-opacity:1"
       d="m 73.5,31.5 h -15 V 15 l 6,-6 V 25.5 H 81 Z"
       id="path14077"
       sodipodi:nodetypes="ccccccc" />
  </g>
  <g
     inkscape:groupmode="layer"
     id="layer14"
     inkscape:label="Sheen"
     style="display:inline">
    <path
       id="path10799-7"
       style="display:inline;mix-blend-mode:screen;fill:url(#linearGradient10850-0);fill-opacity:1;fill-rule:nonzero;stroke:none;stroke-width:3.5453;stroke-miterlimit:4;stroke-dasharray:none;stroke-opacity:1;paint-order:stroke fill markers;filter:url(#filter10846-8)"
       transform="matrix(-1.1138624,1.1841465,-1.0590291,-1.2099871,40.923538,9.0548888)"
       d="M 8.0812993,4.6519466 C 7.1889552,7.3719609 6.3903393,8.3949366 4.6054432,8.4887889 2.7810739,8.5847166 0.70396329,7.9890677 -0.03326665,4.9978111 1.3782257,6.2318808 3.4178399,7.4132794 4.7325625,7.2785987 5.6762066,7.1819314 6.6728187,5.1194681 8.0812993,4.6519466 Z"
       sodipodi:nodetypes="cacsc" />
    <path
       id="path10799-7-2"
       style="display:inline;mix-blend-mode:screen;fill:url(#linearGradient10850-0-2);fill-opacity:1;fill-rule:nonzero;stroke:none;stroke-width:3.5453;stroke-miterlimit:4;stroke-dasharray:none;stroke-opacity:1;paint-order:stroke fill markers;filter:url(#filter10846-8-7)"
       transform="matrix(-1.1138624,1.1841465,-1.0590291,-1.2099871,17.082003,32.706772)"
       d="M 8.0812993,4.6519466 C 7.1889552,7.3719609 6.3903393,8.3949366 4.6054432,8.4887889 2.7810739,8.5847166 0.70396329,7.9890677 -0.03326665,4.9978111 1.3782257,6.2318808 3.4178399,7.4132794 4.7325625,7.2785987 5.6762066,7.1819314 6.6728187,5.1194681 8.0812993,4.6519466 Z"
       sodipodi:nodetypes="cacsc" />
    <path
       style="fill:url(#linearGradient18606);fill-opacity:1;stroke:none;stroke-width:1px;stroke-linecap:butt;stroke-linejoin:miter;stroke-opacity:1"
       d="m 26.986608,79.732143 0.02232,-9.285714 c -1.05072,0.895792 -1.397976,1.325534 -1.540179,3.035714 v 8.191964 c 0.536843,-0.647321 1.196552,-1.294642 1.517859,-1.941964 z"
       id="path18598"
       sodipodi:nodetypes="ccccc" />
    <path
       style="fill:url(#linearGradient18616);fill-opacity:1;stroke:none;stroke-width:1px;stroke-linecap:butt;stroke-linejoin:miter;stroke-opacity:1"
       d="M 69.151786,27.008929 77.232143,26.964286 79.5,25.5 70.401786,25.53571 c -0.624999,0.148813 -1.041668,0.639882 -1.25,1.473219 z"
       id="path18608"
       sodipodi:nodetypes="ccccc" />
  </g>
  <g
     inkscape:label="Cross"
     inkscape:groupmode="layer"
     id="layer1"
     style="display:inline">
    <path
       id="rect18417"
       style="opacity:1;fill:url(#linearGradient18446);fill-opacity:1;stroke:none;stroke-width:3.1;stroke-miterlimit:4;stroke-dasharray:none;stroke-opacity:1;paint-order:markers fill stroke"
       d="M 33,3 C 29.676,3 27,5.676 27,9 V 27 H 9 c -3.324,0 -6,2.676 -6,6 v 24 c 0,3.324 2.676,6 6,6 h 18 v 18 c 0,3.324 2.676,6 6,6 h 24 c 3.324,0 6,-2.676 6,-6 V 63 h 18 c 3.324,0 6,-2.676 6,-6 V 33 c 0,-3.324 -2.676,-6 -6,-6 H 63 V 9 C 63,5.676 60.324,3 57,3 Z" />
  </g>
  <g
     inkscape:groupmode="layer"
     id="layer15"
     inkscape:label="Arrows"
     style="display:inline">
    <path
       style="fill:url(#linearGradient18741);stroke:url(#linearGradient18733);stroke-width:1px;stroke-linecap:butt;stroke-linejoin:miter;stroke-opacity:1;fill-opacity:1"
       d="m 37.5,22.5 7.5,-15 7.5,15 z"
       id="path18717" />
    <path
       style="fill:none;stroke:#000000;stroke-width:1px;stroke-linecap:butt;stroke-linejoin:miter;stroke-opacity:1"
       d="m 52.5,67.5 h -15 l 7.5,15 z"
       id="path18721" />
    <path
       style="fill:none;stroke:#000000;stroke-width:1px;stroke-linecap:butt;stroke-linejoin:miter;stroke-opacity:1"
       d="m 22.5,52.5 v -15 L 7.5,45 Z"
       id="path18723" />
    <circle
       style="opacity:1;fill:none;fill-opacity:0.334677;stroke:#000000;stroke-width:1.7;stroke-miterlimit:4;stroke-dasharray:none;stroke-opacity:1;paint-order:markers fill stroke"
       id="path18725"
       cx="45"
       cy="45"
       r="6" />
    <path
       style="display:inline;fill:url(#linearGradient18784);fill-opacity:1;stroke:url(#linearGradient18786);stroke-width:1px;stroke-linecap:butt;stroke-linejoin:miter;stroke-opacity:1"
       d="m 67.5,37.5 15,7.5 -15,7.5 z"
       id="path18717-2" />
  </g>
</svg>
