<svg xmlns="http://www.w3.org/2000/svg" width="320" height="320"><g stroke="#00177d"><path fill="#20b562" stroke-width=".9" d="M55 110h160v160H55z"/><path fill="#bdffca" stroke-width=".5" d="M110 55h160l-55 55H55z"/><path fill="#00177d" stroke-width=".5" d="M215 110v160l55-55V55z"/></g><g font-family="Dyuthi" font-size="40" font-weight="400" letter-spacing="0" word-spacing="0"><text style="line-height:1.25;-inkscape-font-specification:Dyuthi" x="-264" y="123"><tspan x="-264" y="123">POCKET</tspan></text><g aria-label="POCKET3" style="line-height:1.25;-inkscape-font-specification:Dyuthi;text-align:center" text-anchor="middle"><path d="M91.1 226.8l2-2q1-1 2.5-1 1.8.1 3.9 2.2 2.2 2.2 2.2 4 .1 1.4-1 2.5l-2 2zm12.8 6.4q2.6-2.7 1.8-6.3-.5-2.7-2.2-4.4-2-2-5-2.3-3-.2-5.3 1.5l-.1.1q-.5.3-.8.7l-4.8 4.8q-.8.8-.8 2t.8 2l13.2 13.3q.9.9 2 .8 1.2 0 2-.8h.1q.8-.9.8-2 0-1.3-.8-2.1l-4-4zM118.2 224q-3-.4-7.5-4.9-2.2-2.2-2.6-5.2-.3-3 1.5-4.8 1.7-1.6 4.7-1.4 3 .3 5.3 2.5 4.5 4.5 4.8 7.6.2 3-1.6 4.7-1.7 1.8-4.6 1.4zm-10.9-17.2l-.5.7q-3 3.6-3 8.4 0 4.8 3.9 8.8 3.6 3.6 8 3.7 4.4.2 8.7-3.3l.4-.4.3-.3h.1l.3-.5q3.6-4 3.4-8.7-.1-4.4-3.7-8-4-4-8.9-4-4.4 0-8.3 3.1l-.7.5zM144.1 198.5q-.7.4-1 1.2-.6 1.4-1.6 2.4-2.2 2.1-5.4 2-3.2-.3-5.6-2.7-2.5-2.4-2.7-5.7-.2-3.2 2-5.4 1-1 2.4-1.5.8-.3 1.2-1v-.1q.7-1.4-.4-2.6-1.1-1.1-2.5-.4-1.6.8-3 2l-.7.7-.6.6q-3.5 4.2-3.6 9 0 5 3.8 8.8 3.7 3.7 8.2 3.8 4.8 0 9.2-4l.5-.4.2-.2.2-.2.3-.4q1.3-1.4 2.2-2.9.9-1.5-.3-2.7-1.2-1.2-2.7-.4zM162 187.3q1-1 .6-2.4-.4-1.5-1.8-1.8l-9.8-2q-2.2-.5-2.7-2.8l-1.2-5.2q-.4-1.4-1.8-1.8-1.3-.4-2.3.6-1 1-.7 2.3l1.2 7.8q0 .3-.2.4-.3.2-.7-.2l-3-3q-.9-.9-2-.9-1.3 0-2.1.9-.9.8-.9 2 0 1.3.8 2l13.2 13.3q.9.9 2.1.9 1.2 0 2-1 1-.8 1-2t-1-2l-4.1-4.2q0-1 .5-1.5.7-.5 1.5-.4l9.1 1.6q1.4.3 2.2-.6zM166.1 177l-4.4-4.3 5.2-5q.6-.5.6-1.5 0-.9-.6-1.6-.7-.7-1.6-.6-1 0-1.6.6l-4.9 5.2-3.9-4 5.6-5q.5-.5.6-1.4l-.3-1.4q-.4-1.2-2-1.4-1 0-1.7.7l-7 7q-1.1 1.1-1 2.5 0 1.5 1 2.5l12.4 12.5q1 1 2.5 1t2.5-1l7.4-7.4q.7-.7.6-1.6 0-.9-.6-1.6-.7-.7-1.6-.7-1 0-1.6.7zM163.2 155.5q.5.3 1.3.2.7 0 1.1-.5l3-3.5 12.5 12.6q.9.9 2.1.9 1.2 0 2.1-.9 1-1 1-2.1 0-1.3-1-2.2l-12.5-12.5 3.4-3q.5-.3.6-1 0-.8-.3-1.3-.6-1.1-1.7-1.3-1 0-1.7.6l-10.5 10.6q-.7.7-.6 1.6.1 1 1.2 1.7z"/><path d="M180.2 133.7q.6-2.7-1-4-1.3-1-3.1-.5-2 .5-3.5 2l-.7.9-.7 1q-.5.8.1 1.3.4.4 1 .4.4-.1.8-.6l.3-.5.4-.4q.7-.7 1.6-1 1-.1 1.5.3.6.5.5 1.6 0 .5-.6 1.6-.5.8.2 1.5.3.3.8.4.4 0 .8-.3.7-.5 1-.5.6-.2 1.3 0 .4 0 1 .8h.2q.6.7.2 2-.3 1.2-1.5 2-.6.3-.6 1 0 .6.4 1t.8.4l.9-.2.2-.1q.8-.5 1.6-1.3 1.6-1.6 2.1-3.7.5-2-.5-3.5-.7-1.1-2.2-1.5-1.5-.4-3.3 0z" baseline-shift="super" font-size="65%"/></g></g></svg>