<svg xmlns="http://www.w3.org/2000/svg" width="320" height="320"><path fill="#fff" d="M0 0h320v320H0z"/><g letter-spacing="0" word-spacing="0"><text x="-264" y="123" font-family="Dyuthi" font-size="40" font-weight="400" style="line-height:1.25;-inkscape-font-specification:Dyuthi"><tspan x="-264" y="123" font-family="Boxfont Round" style="-inkscape-font-specification:'Boxfont Round'">POKiT<tspan baseline-shift="super" font-size="65%" style="-inkscape-font-specification:'Boxfont Round'">3</tspan></tspan></text><g stroke="none" stroke-width="0" aria-label="POKiT3" font-family="Boxfont Round" font-size="89.2" font-weight="500" style="line-height:1.25;-inkscape-font-specification:Dyuthi"><path d="M24.1 125.8h39.2q3.6 0 7.2 3.6 3.5 3.5 3.5 7V158q0 3.5-3.5 7.1-3.6 3.6-7.2 3.6H45.5v-14.3h14.3v-14.2H38.4v57H24v-71.3zM92 197.1q-3.6 0-7.2-3.6-3.6-3.5-3.6-7v-25-25q0-3.6 3.6-7.1 3.6-3.6 7.1-3.6h28.6q3.5 0 7 3.6 3.7 3.5 3.7 7v50q0 3.6-3.6 7.1-3.6 3.6-7.1 3.6H91.9zm3.5-57v42.7h21.4v-42.7H95.5zM152.6 125.8v28.5h7.1l14.3-28.5h14.3l-17.9 35.6 17.9 35.7H174l-14.3-28.5h-7V197h-14.4v-71.3h14.3zM209.7 150.8V197h-14.2v-46.3h14.2zM195.5 140v-14.3h14.2V140h-14.2zM266.8 125.8V140H249v57h-14.3v-57H217v-14.3h50z" style="-inkscape-font-specification:'Boxfont Round Medium'"/><path d="M272.8 115h25.5q2.3 0 4.6 2.4 2.3 2.3 2.3 4.6v11.6q0 2.3-1.1 3.5l-1.2 1.2 1.2 1.1q1.1 1.2 1.1 3.5v11.6q0 2.3-2.3 4.6t-4.6 2.3h-25.5v-9.2h23.1v-9.3H282v-9.3h14v-9.2h-23.2V115z" baseline-shift="super" font-size="58" style="-inkscape-font-specification:'Boxfont Round Medium'"/></g></g></svg>