<svg xmlns="http://www.w3.org/2000/svg" width="100" height="100" viewBox="0 0 26.46 26.46"><path fill="#413939" d="M2.65 0H26.46V23.81H2.65v-13.4z"/><path fill="#2e2a2b" d="M26.99 24.6v-.79H2.65l-.8.8H14.55z"/><path fill="#403c41" d="M1.86 24.62l.79-.8V-.26h-.8v14.82z"/><g><path fill="#393736" d="M8.5 18.9h10.4l-3.78-3.78 3.78-3.78-3.78-3.78-3.78 3.78-3.78-3.78V18.9z"/><path fill="#403c41" d="M7.56 18.9l-.95.94V6.61l.95.95z"/><path fill="#2e2a2b" d="M19.84 11.34L15.12 6.6v.95l3.78 3.78z"/><path fill="#403c41" d="M7.56 6.61h-.95l.95.95z"/><path fill="#2e2a2b" d="M19.84 18.9l-3.78-3.78h-.94l3.78 3.78z"/><path fill="#45494d" d="M19.84 11.34l-3.78 3.78h-.94l3.78-3.78z"/><path fill="#2e2a2b" d="M7.56 6.61l3.78 3.78v.95L7.56 7.56zM11.34 10.4l3.78-3.79v.95l-3.78 3.78z"/><path fill="#5c5b60" d="M6.61 19.84h13.23l-.94-.94H7.56z"/><path fill="#403c41" d="M19.84 18.9h-.94l.94.94z"/></g></svg>