<svg xmlns="http://www.w3.org/2000/svg" width="100" height="100" viewBox="0 0 26.46 26.46"><path fill="#413939" d="M2.65 2.65H27.78V27.78H2.64V13.64z"/><path fill="#5c5b60" d="M1.85 1.85l.8.8H27.78l.8-.8H11.9z"/><path fill="#403c41" d="M1.85 27.78l.8-.8V2.66l-.8-.8v12.71z"/><g><path fill="#433f3e" d="M7.56 8.5v10.4l3.78-3.78 3.78 3.78 3.78-3.78-3.78-3.78 3.78-3.78H7.56z"/><path fill="#2e2a2b" d="M7.56 7.56l-.95-.95h13.23l-.94.95z"/><path fill="#5c5b60" d="M15.12 19.84l4.72-4.72h-.94l-3.78 3.78z"/><path fill="#403c41" d="M19.84 7.56v-.95l-.94.95z"/><path fill="#5c5b60" d="M7.56 19.84l3.78-3.78v-.94L7.56 18.9zM15.12 19.84l-3.78-3.78v-.94l3.78 3.78zM19.84 7.56l-3.78 3.78h-.94l3.78-3.78z"/><path fill="#2e2a2b" d="M16.06 11.34l3.78 3.78h-.94l-3.78-3.78zM6.61 6.61v13.23l.95-.94V7.56z"/><path fill="#5c5b60" d="M7.56 19.84v-.94l-.95.94z"/></g></svg>