<svg xmlns="http://www.w3.org/2000/svg" xmlns:xlink="http://www.w3.org/1999/xlink" width="100" height="100"><defs><linearGradient id="a"><stop offset="0" stop-color="#2e2a2b"/><stop offset="1" stop-color="#5c5b60"/></linearGradient><linearGradient id="m" x1="23.5" x2="24.1" y1="6.1" y2="6.6" gradientUnits="userSpaceOnUse" xlink:href="#a"/><linearGradient id="i" x1="25.9" x2="22.2" y1="4.2" y2=".5" gradientUnits="userSpaceOnUse" xlink:href="#a"/><linearGradient id="j" x1="22.2" x2="25.1" y1="2.8" y2="2.8" gradientUnits="userSpaceOnUse" xlink:href="#a"/><linearGradient id="h" x1="1.3" x2="4.2" y1="23.7" y2="23.7" gradientUnits="userSpaceOnUse" xlink:href="#a"/><linearGradient id="k" x1="22.5" x2="23" y1="3.4" y2="4" gradientUnits="userSpaceOnUse" xlink:href="#a"/><linearGradient id="g" x1="4.2" x2=".5" y1="25.9" y2="22.2" gradientUnits="userSpaceOnUse" xlink:href="#a"/><linearGradient id="l" x1="3.2" x2="4.2" y1="22.2" y2="23.3" gradientUnits="userSpaceOnUse" xlink:href="#a"/><linearGradient id="o" x1="55" x2="0" y1="100" y2="45" gradientUnits="userSpaceOnUse" xlink:href="#a"/><linearGradient id="n" x1="100" x2="45" y1="55" gradientUnits="userSpaceOnUse" xlink:href="#a"/><filter id="b" color-interpolation-filters="sRGB"><feGaussianBlur result="result8"/><feTurbulence baseFrequency="0.025 0.028" numOctaves="5" result="result7" seed="3"/><feColorMatrix result="result5" values="1 0 0 0 0 0 1 0 0 0 0 0 1 0 0 0 0 0 6 -2.4"/><feComposite in="result8" in2="result7" operator="in" result="result6"/><feDisplacementMap in="result5" in2="result6" result="result4" scale="40" xChannelSelector="R"/><feFlood flood-color="#FFF" flood-opacity="1" result="result10"/><feComposite in2="result4" operator="in" result="result2"/><feComposite in="result2" in2="result8" operator="in" result="result9"/><feBlend in2="result8" result="result11"/><feBlend in2="result11" mode="multiply"/></filter><filter id="e" color-interpolation-filters="sRGB"><feGaussianBlur result="result8"/><feTurbulence baseFrequency="0.025 0.028" numOctaves="5" result="result7" seed="3"/><feColorMatrix result="result5" values="1 0 0 0 0 0 1 0 0 0 0 0 1 0 0 0 0 0 6 -2.4"/><feComposite in="result8" in2="result7" operator="in" result="result6"/><feDisplacementMap in="result5" in2="result6" result="result4" scale="40" xChannelSelector="R"/><feFlood flood-color="#FFF" flood-opacity="1" result="result10"/><feComposite in2="result4" operator="in" result="result2"/><feComposite in="result2" in2="result8" operator="in" result="result9"/><feBlend in2="result8" result="result11"/><feBlend in2="result11" mode="multiply"/></filter><filter id="d" color-interpolation-filters="sRGB"><feGaussianBlur result="result8"/><feTurbulence baseFrequency="0.025 0.028" numOctaves="5" result="result7" seed="3"/><feColorMatrix result="result5" values="1 0 0 0 0 0 1 0 0 0 0 0 1 0 0 0 0 0 6 -2.4"/><feComposite in="result8" in2="result7" operator="in" result="result6"/><feDisplacementMap in="result5" in2="result6" result="result4" scale="40" xChannelSelector="R"/><feFlood flood-color="#FFF" flood-opacity="1" result="result10"/><feComposite in2="result4" operator="in" result="result2"/><feComposite in="result2" in2="result8" operator="in" result="result9"/><feBlend in2="result8" result="result11"/><feBlend in2="result11" mode="multiply"/></filter><filter id="f" color-interpolation-filters="sRGB"><feGaussianBlur result="result8"/><feTurbulence baseFrequency="0.025 0.028" numOctaves="5" result="result7" seed="3"/><feColorMatrix result="result5" values="1 0 0 0 0 0 1 0 0 0 0 0 1 0 0 0 0 0 6 -2.4"/><feComposite in="result8" in2="result7" operator="in" result="result6"/><feDisplacementMap in="result5" in2="result6" result="result4" scale="40" xChannelSelector="R"/><feFlood flood-color="#FFF" flood-opacity="1" result="result10"/><feComposite in2="result4" operator="in" result="result2"/><feComposite in="result2" in2="result8" operator="in" result="result9"/><feBlend in2="result8" result="result11"/><feBlend in2="result11" mode="multiply"/></filter><filter id="c" color-interpolation-filters="sRGB"><feGaussianBlur result="result8"/><feTurbulence baseFrequency="0.025 0.028" numOctaves="5" result="result7" seed="3"/><feColorMatrix result="result5" values="1 0 0 0 0 0 1 0 0 0 0 0 1 0 0 0 0 0 6 -2.4"/><feComposite in="result8" in2="result7" operator="in" result="result6"/><feDisplacementMap in="result5" in2="result6" result="result4" scale="40" xChannelSelector="R"/><feFlood flood-color="#FFF" flood-opacity="1" result="result10"/><feComposite in2="result4" operator="in" result="result2"/><feComposite in="result2" in2="result8" operator="in" result="result9"/><feBlend in2="result8" result="result11"/><feBlend in2="result11" mode="multiply"/></filter></defs><path fill="#353538" d="M50 0l50 50-50 50L0 50z"/><path fill="#3ef900" d="M40 50l10 10 10-10-10-10z" filter="url(#b)"/><path fill="#3eff00" d="M50 10v30L40 50H10z" filter="url(#c)"/><path fill="#3eb200" d="M50 90V60l10-10h30z" filter="url(#d)"/><path fill="#3ee900" d="M10 50h30l10 10v30z" filter="url(#e)"/><path fill="#3ede00" d="M90 50H60L50 40V10z" filter="url(#f)"/><g><path fill="none" stroke="#000" stroke-opacity=".7" stroke-width="3.4" d="M50 10l40 40-40 40-40-40z"/></g><g><path fill="#5c5b60" d="M10 50l40-40V0L0 50z"/><path fill="#353538" d="M-112.3 25.9l-10-10v-70l10-10h70l10 10v70l-10 10z"/><text x="14.1" y="24.5" fill="#918a91" stroke-width="0" font-family="sans-serif" font-size="1.5" font-weight="400" letter-spacing="0" style="line-height:1.25;text-align:center" text-anchor="middle" transform="matrix(3.77953 0 0 3.77953 -127.3 -69.1)" word-spacing="0"/><g fill="#737271"><g stroke="none" stroke-width="0" aria-label="POKiT3" font-family="Boxfont Round" font-size="89.2" font-weight="500" letter-spacing="0" style="line-height:1.25;-inkscape-font-specification:Dyuthi" word-spacing="0"><path d="M-83.6 19.9h1.8l.3.1.2.4v1l-.2.3-.3.2h-.9v-.7h.7v-.7h-1v2.7h-.6v-3.3zM-80.5 23.2q-.2 0-.3-.2-.2-.1-.2-.3v-1.2-1.1l.2-.4.3-.1h1.3l.4.1.1.4v2.3l-.1.3-.4.2h-1.3zm.2-2.7v2h1v-2h-1zM-77.7 19.9v1.3h.4l.6-1.3h.7l-.8 1.6.8 1.7h-.7l-.6-1.3h-.4v1.3h-.6v-3.3h.6zM-75 21v2.2h-.7V21h.7zm-.7-.5V20h.7v.6h-.7zM-72.4 19.9v.6h-.8v2.7h-.7v-2.7h-.8V20h2.3z" style="-inkscape-font-specification:'Boxfont Round Medium'"/><path d="M-72 19.4h1.3l.1.3v1.7l-.3.1h-1.2v-.4h1v-.4h-.6v-.5h.7v-.4h-1v-.4z" baseline-shift="super" font-size="58" style="-inkscape-font-specification:'Boxfont Round Medium'"/></g><path d="M-83.6 19.6h11l.4-.5h-11zM-83.6 23.6l.5.4h12.5l-.5-.4z"/></g><path fill="#5c5b60" d="M-122.3 15.9v-70l10-10h70l2-2h-74l-10 10v74l1-1z"/><path fill="#2e2a2b" d="M-121.3 14.9v-68l10-10h69v-1h-70l-10 10v70z"/><path fill="url(#g)" d="M.8 23l2.6 2.7.6-.6-2.7-2.6z" transform="matrix(3.77953 0 0 3.77953 -127.3 -69.1)"/><path fill="url(#h)" d="M1.3 22.5l.3-.3L4.2 25 4 25z" transform="matrix(3.77953 0 0 3.77953 -127.3 -69.1)"/><path fill="#5c5b60" d="M-112.3 25.9l1-1h68l10-10v-68l1-1v70l-10 10z"/><path fill="#2e2a2b" d="M-114.3 27.9h74l10-10v-74l-2 2v70l-10 10h-70z"/><path fill="url(#i)" d="M25.7 3.4L23 .8l-.5.5L25 4z" transform="matrix(3.77953 0 0 3.77953 -127.3 -69.1)"/><path fill="url(#j)" d="M25.1 4l-.2.2-2.7-2.6.3-.3z" transform="matrix(3.77953 0 0 3.77953 -127.3 -69.1)"/><path fill="#2e2a2b" d="M-113.3 15.9v-70l1-1h70l1-1h-72l-1 1v72z"/><path fill="#5c5b60" d="M-112.3 16.9h70l1-1v-70l1-1v72l-1 1h-72z"/><path fill="url(#k)" d="M23 3.7l-.2-.3-.3.3.3.3z" transform="matrix(3.77953 0 0 3.77953 -127.3 -69.1)"/><path fill="url(#l)" d="M3.4 22.8l.3.2.3-.2-.3-.3z" transform="matrix(3.77953 0 0 3.77953 -127.3 -69.1)"/><g transform="matrix(3.77953 0 0 3.77953 -127.3 -69.1)"><circle cx="23.8" cy="6.3" r=".3" fill="#0f0" stroke="url(#m)" stroke-dashoffset="19" stroke-linecap="square" stroke-linejoin="bevel" stroke-width=".2" paint-order="markers stroke fill"/></g><g transform="matrix(3.77953 0 0 3.77953 -127.3 -1091.7)"><rect width="18.5" height="18.5" x="4" y="274.5" stroke="#000" stroke-dashoffset="5" stroke-linecap="square" stroke-linejoin="bevel" stroke-width=".5" paint-order="markers stroke fill" ry="0"/></g><path fill="url(#n)" d="M50 10l40 40h10L50 0z"/><path fill="url(#o)" d="M0 50h10l40 40v10z"/><path fill="#2e2a2b" d="M50 100l50-50H90L50 90z"/></g></svg>