<svg xmlns="http://www.w3.org/2000/svg" xmlns:xlink="http://www.w3.org/1999/xlink" width="100" height="100" viewBox="0 0 26.46 26.46"><defs><linearGradient id="a"><stop offset="0"/><stop offset="1" stop-color="#1b181a" stop-opacity=".98"/></linearGradient><radialGradient id="b" cx="13.23" cy="13.23" r="12.57" fx="13.23" fy="13.23" gradientTransform="matrix(.95745 0 0 .95745 .56 .56)" gradientUnits="userSpaceOnUse" xlink:href="#a"/></defs><path fill-opacity=".98" stroke="url(#b)" stroke-width=".39" d="M1.32 1.32h23.81v23.81H1.32z"/><path fill="#413939" d="M2.12 2.12H24.34V24.34H2.12v-12.5z"/><path fill="#5c5b60" d="M1.32 1.32l.8.8h22.22l.8-.8z"/><path fill="#2e2a2b" d="M25.14 25.14l-.8-.8H2.12l-.8.8z"/><path fill="#2e2a2b" d="M25.14 1.32l-.8.8v22.22l.8.8z"/><path fill="#5c5b60" d="M1.32 25.14l.8-.8V2.12l-.8-.8v23.82z"/><path fill="#413939" d="M-41.99-22.34H-18.18V1.47H-41.99v-13.39z"/><path fill="#2e2a2b" d="M-17.65 2.26v-.79h-24.34l-.8.8h12.71z"/><path fill="#403c41" d="M-42.78 2.28l.8-.8V-22.6h-.8v14.83z"/><g><path fill="#393736" d="M-36.13-3.44h10.4l-3.79-3.78 3.78-3.78-3.78-3.78L-33.3-11l-3.78-3.78v11.34z"/><path fill="#403c41" d="M-37.08-3.44l-.94.94v-13.23l.94.95z"/><path fill="#2e2a2b" d="M-24.8-11l-4.72-4.73v.95l3.78 3.78z"/><path fill="#403c41" d="M-37.08-15.73h-.94l.94.95z"/><path fill="#2e2a2b" d="M-24.8-3.44l-3.77-3.78h-.95l3.78 3.78z"/><path fill="#45494d" d="M-24.8-11l-3.77 3.78h-.95l3.78-3.78z"/><path fill="#2e2a2b" d="M-37.08-15.73l3.78 3.78v.95l-3.78-3.78zM-33.3-11.95l3.78-3.78v.95L-33.3-11z"/><path fill="#5c5b60" d="M-38.02-2.5h13.23l-.95-.94h-11.34z"/><path fill="#403c41" d="M-24.8-3.44h-.94l.95.94z"/></g><g><path fill="#3f3c3b" d="M-29.67 4.91h-10.4l3.78 3.78-3.78 3.78 3.78 3.78 3.78-3.78 3.78 3.78V4.91z"/><path fill="#403c41" d="M-28.73 4.91l.95-.94V17.2l-.95-.95z"/><path fill="#2e2a2b" d="M-41.01 12.47l4.72 4.73v-.95l-3.78-3.78z"/><path fill="#403c41" d="M-28.73 17.2h.95l-.95-.95z"/><path fill="#5c5b60" d="M-41.01 4.91l3.78 3.78h.94l-3.78-3.78z"/><path fill="#45494d" d="M-41.01 12.47l3.78-3.78h.94l-3.78 3.78zM-28.73 17.2l-3.78-3.78v-.95l3.78 3.78z"/><path fill="#5c5b60" d="M-32.5 13.42l-3.79 3.78v-.95l3.78-3.78z"/><path fill="#2e2a2b" d="M-27.78 3.97h-13.23l.94.94h11.34z"/><path fill="#403c41" d="M-41.01 4.91h.94l-.94-.94z"/></g></svg>