<svg xmlns="http://www.w3.org/2000/svg" width="100" height="100" viewBox="0 0 26.46 26.46"><path fill="#413939" d="M-1.32 2.65h25.14V27.78H-1.34V13.64z"/><path fill="#5c5b60" d="M-2.12 1.85l.8.8H23.8l.8-.8H11.9z"/><path fill="#45494d" d="M24.6 1.85l-.79.8V27.78l.8.8V11.9z"/><g><path fill="#3f3c3b" d="M17.95 7.56H7.56l3.78 3.78-3.78 3.78 3.78 3.78 3.78-3.78 3.78 3.78V7.56z"/><path fill="#403c41" d="M18.9 7.56l.94-.95v13.23l-.94-.94z"/><path fill="#5c5b60" d="M6.61 15.12l4.73 4.72v-.94l-3.78-3.78z"/><path fill="#403c41" d="M18.9 19.84h.94l-.94-.94z"/><path fill="#5c5b60" d="M6.61 7.56l3.78 3.78h.95L7.56 7.56z"/><path fill="#403c41" d="M6.61 15.12l3.78-3.78h.95l-3.78 3.78z"/><path fill="#45494d" d="M18.9 19.84l-3.78-3.78v-.94l3.78 3.78z"/><path fill="#5c5b60" d="M15.12 16.06l-3.78 3.78v-.94l3.78-3.78z"/><path fill="#2e2a2b" d="M19.84 6.61H6.61l.95.95H18.9z"/><path fill="#403c41" d="M6.61 7.56h.95l-.95-.95z"/></g></svg>