<svg xmlns="http://www.w3.org/2000/svg" width="100" height="100" viewBox="0 0 26.46 26.46"><path fill="#413939" d="M-.53-.26h24.34V23.8H-.53V10.27z"/><path fill="#2e2a2b" d="M24.6 24.6l-.79-.79H0l-.8.8h15.35z"/><path fill="#45494d" d="M24.6-1.06l-.79.8V23.8l.8.8V11.9z"/><path fill="#3d3b39" d="M18.9 17.95V7.56l-3.78 3.78-3.78-3.78-3.78 3.78 3.78 3.78-3.78 3.78H18.9z"/><path fill="#5c5b60" d="M18.9 18.9l.94.94H6.61l.95-.94z"/><path fill="#2e2a2b" d="M11.34 6.61L6.6 11.34h.95l3.78-3.78z"/><path fill="#5c5b60" d="M6.61 18.9v.94l.95-.94z"/><path fill="#2e2a2b" d="M18.9 6.61l-3.78 3.78v.95l3.78-3.78zm-7.56 0l3.78 3.78v.95l-3.78-3.78zM6.61 18.9l3.78-3.78h.95L7.56 18.9z"/><path fill="#5c5b60" d="M10.4 15.12l-3.8-3.78h.95l3.78 3.78z"/><path fill="#403c41" d="M19.84 19.84V6.61l-.94.95V18.9z"/><path fill="#403c41" d="M18.9 6.61v.95l.94-.95z"/></svg>