<svg xmlns="http://www.w3.org/2000/svg" xmlns:xlink="http://www.w3.org/1999/xlink" width="100" height="300" viewBox="0 0 26.46 79.38"><defs><linearGradient id="a"><stop offset="0" stop-color="#2e2a2b"/><stop offset="1" stop-color="#5c5b60"/></linearGradient><linearGradient id="b" x1="14.02" x2="10.32" y1="79.64" y2="75.94" gradientUnits="userSpaceOnUse" xlink:href="#a"/></defs><path fill="#353538" d="M0 0v66.15h2.65v2.64h2.64v2.65h2.65v2.64h2.64v2.65l2.65 2.64 2.64-2.64v-2.65h2.65v-2.64h2.65v-2.65h2.64v-2.64h2.65V0z"/><path fill="#5c5b60" d="M0 66.15l.53-.53V.52L0 0z"/><path fill="#2e2a2b" d="M0 66.15l.53-.53h2.64l-.52.53z"/><path fill="#5c5b60" d="M2.65 68.8l.52-.54v-2.64l-.52.53z"/><path fill="#2e2a2b" d="M2.65 68.8l.53-.54h2.64l-.53.53z"/><path fill="#5c5b60" d="M5.3 71.44l.52-.53v-2.65l-.53.53z"/><path fill="#2e2a2b" d="M5.3 71.44l.52-.53h2.65l-.53.53z"/><path fill="#5c5b60" d="M7.94 74.08l.53-.53v-2.64l-.53.53z"/><path fill="#2e2a2b" d="M7.94 74.08l.53-.53h2.64l-.53.53z"/><path fill="#5c5b60" d="M10.58 76.73l.53-.53v-2.65l-.53.53z"/><path fill="url(#b)" d="M11.11 76.2l2.12 2.12v1.05l-2.65-2.64z"/><path fill="#2e2a2b" d="M26.46 66.15l-.53-.53V.52l.53-.52z"/><path fill="#2e2a2b" d="M26.46 66.15l-.53-.53h-2.65l.53.53z"/><path fill="#2e2a2b" d="M23.81 68.8l-.53-.54v-2.64l.53.53z"/><path fill="#2e2a2b" d="M23.81 68.8l-.53-.54h-2.64l.53.53z"/><path fill="#2e2a2b" d="M21.17 71.44l-.53-.53v-2.65l.53.53z"/><path fill="#2e2a2b" d="M21.17 71.44l-.53-.53h-2.65l.53.53zM18.52 74.08l-.53-.53v-2.64l.53.53zM18.52 74.08l-.53-.53h-2.64l.53.53z"/><path fill="#2e2a2b" d="M15.88 76.73l-.53-.53v-2.65l.53.53zM15.35 76.2l-2.12 2.12v1.06l2.65-2.65z"/><path fill="#5c5b60" d="M0 0l.53.53h25.4l.53-.53z"/></svg>