<svg xmlns="http://www.w3.org/2000/svg" viewBox="0 0 26.46 26.46">
  <path d="M2.65 2.65h9.26l1.32 1.32 1.32-1.32h9.26v9.26l-1.32 1.32 1.32 1.32v9.26h-9.26l-1.32-1.32-1.32 1.32H2.65v-9.26l1.32-1.32-1.32-1.32z" fill="#353538"/>
  <path d="M1.85 1.85l.8.8h9.26l1.32 1.32 1.32-1.32h9.26l.8-.8H14.55l-1.32 1.32-1.32-1.32z" fill="#2e2a2b"/>
  <path d="M24.6 24.6l-.79-.79h-9.26l-1.32-1.32-1.32 1.32H2.65l-.8.8h10.06l1.32-1.33 1.32 1.33z" fill="#5c5b60"/>
  <path d="M24.6 1.85l-.79.8v9.26l-1.32 1.32 1.32 1.32v9.26l.8.8V14.55l-1.33-1.32 1.33-1.32z" fill="#403c41"/>
  <path d="M1.86 24.62l.79-.8v-9.26l1.32-1.32-1.32-1.32V2.66l-.8-.8v10.06l1.33 1.32-1.33 1.32z" fill="#45494d"/>
</svg>
