<svg xmlns="http://www.w3.org/2000/svg" xmlns:xlink="http://www.w3.org/1999/xlink" width="100" height="100" viewBox="0 0 26.458 26.458"><defs><linearGradient id="a"><stop offset="0" stop-color="#2e2a2b"/><stop offset="1" stop-color="#5c5b60"/></linearGradient><linearGradient id="h" x1="23.548" x2="24.077" y1="6.085" y2="6.615" gradientUnits="userSpaceOnUse" xlink:href="#a"/><linearGradient id="d" x1="25.929" x2="22.225" y1="4.233" y2=".529" gradientUnits="userSpaceOnUse" xlink:href="#a"/><linearGradient id="e" x1="22.225" x2="25.135" y1="2.778" y2="2.778" gradientUnits="userSpaceOnUse" xlink:href="#a"/><linearGradient id="c" x1="1.323" x2="4.233" y1="23.68" y2="23.68" gradientUnits="userSpaceOnUse" xlink:href="#a"/><linearGradient id="f" x1="22.49" x2="23.019" y1="3.44" y2="3.969" gradientUnits="userSpaceOnUse" xlink:href="#a"/><linearGradient id="b" x1="4.233" x2=".529" y1="25.929" y2="22.225" gradientUnits="userSpaceOnUse" xlink:href="#a"/><linearGradient id="g" x1="3.175" x2="4.233" y1="22.225" y2="23.283" gradientUnits="userSpaceOnUse" xlink:href="#a"/></defs><path fill="#353538" d="M3.969 25.135L1.323 22.49V3.969l2.646-2.646h18.52l2.646 2.646v18.52l-2.645 2.646z"/><text style="line-height:1.25;text-align:center" x="14.052" y="24.537" fill="#918a91" stroke-width=".037" font-family="sans-serif" font-size="1.488" font-weight="400" letter-spacing="0" text-anchor="middle" word-spacing="0"/><g fill="#737271"><g style="line-height:1.25;-inkscape-font-specification:Dyuthi" stroke="none" stroke-width="0" aria-label="POKiT3" font-family="Boxfont Round" font-size="89.164" font-weight="500" letter-spacing="0" word-spacing="0"><path style="-inkscape-font-specification:'Boxfont Round Medium'" d="M11.562 23.551h.482q.044 0 .088.044t.044.088v.263q0 .043-.044.087t-.088.044h-.219v-.175H12v-.176h-.263v.702h-.175v-.877zM12.396 24.428q-.044 0-.088-.044t-.044-.088v-.307-.306q0-.044.044-.088t.088-.044h.35q.044 0 .088.044t.044.088v.613q0 .044-.044.088t-.088.044h-.35zm.043-.702v.526h.263v-.526h-.263zM13.141 23.551v.35h.088l.176-.35h.175l-.22.438.22.439h-.175l-.176-.35h-.088v.35h-.175v-.877h.175zM13.844 23.858v.57h-.176v-.57h.176zm-.176-.132v-.175h.176v.175h-.176zM14.545 23.551v.175h-.219v.702h-.175v-.702h-.22v-.175h.614z"/><path style="-inkscape-font-specification:'Boxfont Round Medium'" d="M14.618 23.42h.314q.028 0 .057.028.028.029.028.057v.143q0 .028-.014.042l-.014.014.014.015q.014.014.014.042v.143q0 .028-.028.057-.029.028-.057.028h-.314v-.114h.285v-.114h-.17v-.113h.17v-.114h-.285v-.114z" baseline-shift="super" font-size="57.956"/></g><path d="M11.573 23.48h2.888l.123-.123h-2.888zM11.573 24.525l.123.123h3.318l-.122-.123z"/></g><path fill="#5c5b60" d="M1.323 22.49V3.969l2.646-2.646h18.52l.53-.53H3.439L.795 3.44v19.579l.264-.265z"/><path fill="#2e2a2b" d="M1.587 22.225V4.233l2.646-2.645H22.49v-.265H3.969L1.323 3.969v18.52z"/><path fill="url(#b)" d="M.794 23.019l2.646 2.646.529-.53-2.646-2.645z"/><path fill="url(#c)" d="M1.323 22.49l.264-.265 2.646 2.646-.264.264z"/><path fill="#5c5b60" d="M3.969 25.135l.264-.264h17.992l2.646-2.646V4.233l.264-.264v18.52l-2.645 2.646z"/><path fill="#2e2a2b" d="M3.44 25.665h19.579l2.646-2.646V3.439l-.53.53v18.52l-2.645 2.646H3.969z"/><path fill="url(#d)" d="M25.665 3.44L23.019.794l-.53.529 2.646 2.646z"/><path fill="url(#e)" d="M25.135 3.969l-.264.264-2.646-2.645.265-.265z"/><path fill="#2e2a2b" d="M3.704 22.49V3.969l.265-.265h18.52l.265-.264H3.704l-.264.264v19.05z"/><path fill="#5c5b60" d="M3.969 22.754h18.52l.265-.264V3.969l.265-.265v19.05l-.265.265H3.704z"/><path fill="url(#f)" d="M23.019 3.704l-.265-.264-.264.264.264.265z"/><path fill="url(#g)" d="M3.44 22.754l.264.265.265-.265-.265-.264z"/><g><circle cx="23.813" cy="6.35" r=".265" fill="#0f0" stroke="url(#h)" stroke-dashoffset="19" stroke-linecap="square" stroke-linejoin="bevel" stroke-width=".212" paint-order="markers stroke fill"/></g><g transform="translate(0 -270.542)"><rect width="18.521" height="18.521" x="3.969" y="274.51" stroke="#000" stroke-dashoffset="5.027" stroke-linecap="square" stroke-linejoin="bevel" stroke-width=".503" paint-order="markers stroke fill" ry="0"/></g></svg>